<svg width="38" height="42" viewBox="0 0 38 42" fill="none" xmlns="http://www.w3.org/2000/svg">
<path fill-rule="evenodd" clip-rule="evenodd" d="M3.79999 16.8C3.79999 16.243 4.00017 15.7089 4.35648 15.3151C4.7128 14.9212 5.19608 14.7 5.69999 14.7H25.2852C25.7891 14.7 26.2724 14.9212 26.6287 15.3151C26.985 15.7089 27.1852 16.243 27.1852 16.8C27.1852 17.3569 26.985 17.8911 26.6287 18.2849C26.2724 18.6787 25.7891 18.9 25.2852 18.9H5.69999C5.19608 18.9 4.7128 18.6787 4.35648 18.2849C4.00017 17.8911 3.79999 17.3569 3.79999 16.8ZM3.79999 8.39999C3.79999 7.84303 4.00017 7.30889 4.35648 6.91506C4.7128 6.52124 5.19608 6.29999 5.69999 6.29999H32.3C32.8039 6.29999 33.2872 6.52124 33.6435 6.91506C33.9998 7.30889 34.2 7.84303 34.2 8.39999C34.2 8.95694 33.9998 9.49109 33.6435 9.88491C33.2872 10.2787 32.8039 10.5 32.3 10.5H5.69999C5.19608 10.5 4.7128 10.2787 4.35648 9.88491C4.00017 9.49109 3.79999 8.95694 3.79999 8.39999ZM3.79999 25.2C3.79999 24.643 4.00017 24.1089 4.35648 23.7151C4.7128 23.3212 5.19608 23.1 5.69999 23.1H32.3C32.8039 23.1 33.2872 23.3212 33.6435 23.7151C33.9998 24.1089 34.2 24.643 34.2 25.2C34.2 25.7569 33.9998 26.2911 33.6435 26.6849C33.2872 27.0787 32.8039 27.3 32.3 27.3H5.69999C5.19608 27.3 4.7128 27.0787 4.35648 26.6849C4.00017 26.2911 3.79999 25.7569 3.79999 25.2ZM3.79999 33.6C3.79999 33.043 4.00017 32.5089 4.35648 32.1151C4.7128 31.7212 5.19608 31.5 5.69999 31.5H25.2852C25.7891 31.5 26.2724 31.7212 26.6287 32.1151C26.985 32.5089 27.1852 33.043 27.1852 33.6C27.1852 34.1569 26.985 34.6911 26.6287 35.0849C26.2724 35.4787 25.7891 35.7 25.2852 35.7H5.69999C5.19608 35.7 4.7128 35.4787 4.35648 35.0849C4.00017 34.6911 3.79999 34.1569 3.79999 33.6Z" fill="black"/>
</svg>
