<svg width="46" height="41" viewBox="0 0 46 41" fill="none" xmlns="http://www.w3.org/2000/svg">
<path d="M41.2663 24.7192L37.375 21.2508V16.6562C37.3705 13.4811 36.0453 10.4202 33.6557 8.06545C31.266 5.71068 27.9816 4.22932 24.4375 3.90781V1.28125H21.5625V3.90781C18.0184 4.22932 14.734 5.71068 12.3443 8.06545C9.95466 10.4202 8.62946 13.4811 8.625 16.6562V21.2508L4.73369 24.7192C4.46409 24.9594 4.31258 25.2852 4.3125 25.625V29.4688C4.3125 29.8086 4.46395 30.1345 4.73353 30.3747C5.00312 30.615 5.36875 30.75 5.75 30.75H15.8125V32.0312C15.8125 33.7303 16.5698 35.3597 17.9177 36.5612C19.2656 37.7626 21.0938 38.4375 23 38.4375C24.9062 38.4375 26.7344 37.7626 28.0823 36.5612C29.4302 35.3597 30.1875 33.7303 30.1875 32.0312V30.75H40.25C40.6312 30.75 40.9969 30.615 41.2665 30.3747C41.536 30.1345 41.6875 29.8086 41.6875 29.4688V25.625C41.6874 25.2852 41.5359 24.9594 41.2663 24.7192ZM27.3125 32.0312C27.3125 33.0507 26.8581 34.0284 26.0494 34.7492C25.2406 35.47 24.1437 35.875 23 35.875C21.8563 35.875 20.7594 35.47 19.9506 34.7492C19.1419 34.0284 18.6875 33.0507 18.6875 32.0312V30.75H27.3125V32.0312Z" fill="black"/>
</svg>
